<svg xmlns="http://www.w3.org/2000/svg" xmlns:xlink="http://www.w3.org/1999/xlink" preserveAspectRatio="xMidYMid" width="37" height="37" viewBox="0 0 37 37">
  <defs>
    <style>
      .cls-1 {
        stroke: #fff;
        stroke-width: 2px;
        fill: none;
      }

      .cls-2 {
        fill: #fff;
        fill-rule: evenodd;
      }
    </style>
  </defs>
  <g>
    <circle cx="18.5" cy="18.5" r="17.5" class="cls-1"/>
    <path d="M26.000,12.425 C25.411,12.659 24.772,12.828 24.112,12.893 C24.792,12.519 25.310,11.928 25.553,11.224 C24.924,11.572 24.213,11.824 23.472,11.956 C22.873,11.365 22.020,11.000 21.076,11.000 C19.259,11.000 17.797,12.359 17.797,14.028 C17.797,14.262 17.827,14.496 17.878,14.722 C15.157,14.590 12.731,13.390 11.117,11.552 C10.832,12.003 10.670,12.519 10.670,13.081 C10.670,14.131 11.249,15.059 12.132,15.603 C11.594,15.584 11.086,15.443 10.650,15.218 C10.650,15.228 10.650,15.247 10.650,15.256 C10.650,16.728 11.777,17.947 13.279,18.228 C13.005,18.293 12.711,18.331 12.416,18.331 C12.203,18.331 12.000,18.312 11.797,18.284 C12.213,19.484 13.421,20.356 14.863,20.384 C13.736,21.200 12.325,21.678 10.792,21.678 C10.518,21.678 10.264,21.668 10.000,21.640 C11.452,22.503 13.178,23.000 15.035,23.000 C21.066,23.000 24.365,18.387 24.365,14.384 C24.365,14.253 24.365,14.122 24.355,13.990 C24.995,13.559 25.553,13.025 26.000,12.425 Z" class="cls-2"/>
  </g>
</svg>
